<svg width="174" height="168" viewBox="0 0 174 168" fill="none" xmlns="http://www.w3.org/2000/svg">
<path d="M47.4804 24.8751C48.1902 24.6824 48.8519 24.3548 49.5295 24.0625C51.6782 23.9501 53.8333 24.0625 55.9884 24.0111C57.7645 23.8826 59.3189 24.9008 60.9666 25.3922C61.9654 26.1469 63.1795 26.5901 64.0916 27.467C64.8078 28.1607 65.5016 28.8833 66.2049 29.5931C66.3302 30.4892 66.8312 31.2665 67.2616 32.0437C68.5142 31.578 69.6961 30.9517 70.9519 30.4956C71.2506 30.4603 71.5525 30.425 71.8576 30.3896C72.6573 30.0331 73.4956 29.7184 74.3949 29.7891C74.5073 29.7088 74.7353 29.5482 74.8478 29.4679C75.1336 29.4743 75.7085 29.4871 75.9944 29.4936C76.1068 29.4069 76.3348 29.2334 76.4504 29.1467C76.9354 29.1531 77.4268 29.1628 77.9214 29.1724C78.037 29.0857 78.2651 28.9122 78.3775 28.8255C78.9717 28.8352 79.569 28.8416 80.1696 28.8512C80.282 28.7645 80.5133 28.5943 80.6257 28.5076C82.0774 28.5268 83.5323 28.5043 84.9873 28.5268C85.1029 28.4433 85.3309 28.2699 85.4433 28.1864C86.3587 28.1992 87.2772 28.1992 88.199 28.1864C88.3146 28.2731 88.5427 28.4433 88.6551 28.5268C90.0008 28.5076 91.3465 28.5268 92.6955 28.5076C92.8111 28.5943 93.0391 28.7645 93.1515 28.848C93.8517 28.8384 94.5551 28.8352 95.2617 28.8255C95.3773 28.9122 95.6053 29.0857 95.7209 29.1724C96.2059 29.1628 96.6941 29.1563 97.1887 29.1499C97.3011 29.2302 97.5292 29.3876 97.6416 29.4679C98.9359 29.4422 100.134 30.0267 101.403 30.2034C102.98 30.7558 104.582 31.2729 106.063 32.0598C106.378 31.4945 106.692 30.9196 106.814 30.2772C108.488 27.711 110.98 25.6202 113.954 24.7659C114.966 24.4897 115.926 23.9308 117.008 24.0111C119.058 24.04 121.11 23.9886 123.159 24.0464C124.501 24.4318 125.821 24.8847 127.125 25.3922C128.49 26.2786 129.929 27.088 131.076 28.2667C132.762 30.2965 134.432 32.4227 135.322 34.9375C135.688 35.7854 136.044 36.6622 135.974 37.6097C136.054 37.7221 136.211 37.9501 136.292 38.0625C136.25 39.5078 136.327 40.9499 136.263 42.392C135.983 43.4711 135.765 44.5695 135.434 45.6326C134.419 47.746 132.855 49.5574 131.134 51.1279C131.564 51.5583 131.847 52.0947 132.149 52.6182C133.225 53.7359 133.806 55.2133 134.612 56.5205C135.11 57.2367 135.511 58.0236 135.749 58.8682C136.038 59.9859 136.664 60.9687 137.043 62.0511C137.564 63.1977 137.885 64.4149 138.322 65.5937C139.086 67.2284 139.266 69.0559 139.719 70.7871C140.371 72.7109 140.984 74.6508 141.662 76.565C141.925 78.264 142.664 79.8795 142.719 81.6107C142.799 81.7231 142.959 81.9511 143.04 82.0667C143.033 82.3526 143.02 82.9211 143.014 83.2069C143.101 83.3225 143.274 83.5506 143.361 83.6662C143.345 84.2604 143.342 84.8577 143.335 85.4583C143.422 85.5708 143.595 85.802 143.682 85.9144C143.666 86.6178 143.663 87.3212 143.66 88.0277C143.743 88.1402 143.916 88.3714 144 88.4838C143.984 91.5446 143.984 94.6054 144 97.663C143.913 97.7786 143.743 98.0067 143.656 98.1223C143.663 98.8224 143.666 99.5258 143.682 100.232C143.595 100.345 143.422 100.576 143.335 100.688C143.342 101.283 143.345 101.88 143.358 102.477C143.277 102.593 143.11 102.818 143.03 102.933C143.155 104.173 142.619 105.323 142.42 106.524C142.295 107.224 142.108 107.915 141.983 108.615C141.389 110.247 141.058 111.958 140.419 113.574C139.863 114.843 139.526 116.243 138.614 117.319C138.18 118.844 137.313 120.203 136.507 121.552C135.768 123.129 134.596 124.446 133.912 126.052C132.887 127.07 132.097 128.284 131.089 129.318C130.392 130.526 129.152 131.268 128.436 132.456C127.806 133.426 126.807 134.03 125.931 134.739C124.139 136.74 121.682 137.961 119.751 139.801C116.485 141.789 113.029 143.504 109.464 144.892C108.144 145.203 106.975 146.164 105.581 146.061C105.475 145.948 105.26 145.724 105.151 145.611C105.08 144.635 105.138 143.655 105.131 142.679C104.977 142.531 104.669 142.232 104.515 142.082C104.319 140.302 103.638 138.545 102.488 137.158C100.221 135.07 97.3332 133.879 94.6482 132.446C93.8645 131.685 92.8047 131.332 92.0146 130.593C90.7941 129.732 89.2878 129.215 87.7847 129.36C86.1981 129.472 84.5344 129.084 83.0217 129.703C81.6502 130.172 80.6996 131.341 79.4213 131.981C78.3036 133.121 76.6913 133.538 75.2781 134.19C74.5459 134.65 73.7975 135.077 73.062 135.53C71.9989 136.146 71.2281 137.123 70.3513 137.961C69.452 138.773 69.3749 140.068 68.9189 141.124C68.466 142.605 68.4532 144.137 68.527 145.672C68.1545 145.894 67.7819 146.112 67.4093 146.334C66.3174 145.682 65.0487 145.454 63.8764 144.995C61.9847 144.201 60.0352 143.536 58.2366 142.534C56.7656 141.915 55.4873 140.945 54.042 140.283C53.602 140.113 53.4736 139.599 53.1074 139.348C51.2703 138.093 49.5295 136.702 47.7374 135.385C46.3595 133.975 44.805 132.706 43.7002 131.062C42.817 130.442 42.226 129.53 41.4809 128.772C40.5527 127.452 39.4543 126.248 38.7091 124.809C37.1065 122.48 35.5199 120.11 34.5788 117.422C33.6571 115.63 32.9537 113.741 32.2856 111.843C32.2632 111.676 32.2182 111.345 32.1957 111.181C32.048 111.037 31.7557 110.748 31.608 110.603C31.608 109.797 31.3061 109.049 31.0202 108.31C30.8436 107.041 30.2526 105.847 30.2815 104.549C30.2044 104.433 30.0438 104.199 29.9635 104.083C29.9667 103.592 29.9732 103.104 29.986 102.616C29.8993 102.5 29.7259 102.272 29.6392 102.159C29.6456 101.559 29.652 100.961 29.6648 100.367C29.5781 100.255 29.4079 100.024 29.3212 99.9112C29.334 98.7775 29.3244 97.6469 29.3405 96.5132C29.257 96.4008 29.0835 96.1695 29 96.0571C29.0161 93.9598 29.0161 91.8658 29 89.7685C29.0835 89.6561 29.257 89.4281 29.3405 89.3124C29.3244 88.2847 29.334 87.2601 29.3212 86.2356C29.4047 86.12 29.5781 85.8919 29.6616 85.7795C29.652 85.0729 29.6488 84.3696 29.6392 83.6662C29.7259 83.5506 29.8993 83.3225 29.986 83.2069C29.9796 82.9211 29.9668 82.3494 29.9603 82.0635C30.047 81.9479 30.2205 81.7167 30.3072 81.6042C30.3008 81.3184 30.2879 80.7467 30.2815 80.4609C30.3618 80.3452 30.5224 80.1172 30.6027 80.0048C30.5513 79.1505 30.8917 78.3572 31.0106 77.5253C31.1776 77.0821 31.3317 76.6325 31.5212 76.1957C31.5405 76.0319 31.5823 75.6978 31.6015 75.5308C31.7493 75.3863 32.048 75.0972 32.1957 74.9527C32.109 74.002 32.7353 73.2344 32.973 72.3576C33.3584 71.105 33.9397 69.9231 34.3958 68.6962C34.4728 67.8387 34.688 67.0036 35.0542 66.2264C35.0895 65.9245 35.128 65.6258 35.1698 65.3239C35.8378 63.7533 36.1429 62.0447 36.9298 60.5223C37.3634 59.6551 37.5754 58.682 38.131 57.8726C39.3097 56.0901 40.2443 54.1438 41.513 52.4255C41.5194 52.2585 41.5355 51.9244 41.5451 51.7574C41.7667 51.5583 41.9915 51.3624 42.2196 51.1665C41.4263 50.3892 40.5912 49.6505 39.8654 48.8058C39.1267 47.7909 38.5229 46.6764 37.7263 45.7001C37.6974 45.5459 37.6396 45.2312 37.6107 45.0738C37.084 43.6863 36.6151 42.225 36.7114 40.7219C36.7146 39.8515 36.7082 38.9779 36.7435 38.1075C37.0005 37.5486 37.0744 36.932 37.2639 36.3474C37.479 35.5895 37.903 34.9022 38.0828 34.1313C39.1331 32.7567 39.9103 31.2022 40.8257 29.7409C41.6511 28.8512 42.5086 27.984 43.4079 27.1683C44.7055 26.3139 45.9452 25.283 47.4804 24.8751ZM52.2563 24.7916C50.3357 24.9875 48.4407 25.4885 46.6935 26.3171C44.6798 27.2742 43.0161 28.8512 41.7378 30.6594C40.6683 32.185 39.4928 33.6817 38.8472 35.4514C37.6589 38.57 37.5529 42.1832 38.9275 45.2633C39.6984 47.0394 41.0569 48.4558 42.3673 49.8497C43.2666 50.7778 43.8576 51.9983 44.9464 52.7467C46.154 53.5785 47.5222 54.2498 48.99 54.4457C50.4834 54.6352 52.0315 53.9703 52.9597 52.7884C54.6394 50.6301 56.0943 48.2406 58.2141 46.4645C59.1808 45.6776 60.2311 44.9164 61.4708 44.6306C62.9033 44.2676 64.461 44.1938 65.7392 43.3812C66.7831 42.7485 67.4093 41.5858 67.5474 40.3943C67.7562 38.7274 67.7113 37.0283 67.4768 35.3679C67.2648 33.8005 66.2017 32.5672 65.5273 31.1862C64.6472 29.3844 63.2116 27.8684 61.4612 26.8921C58.6894 25.3215 55.4391 24.541 52.2563 24.7916ZM118.422 24.8012C116.022 25.0324 113.675 25.7904 111.574 26.9627C109.756 28.0001 108.459 29.7023 107.495 31.5202C106.763 32.7856 105.841 34.0125 105.671 35.5092C105.424 37.3399 105.314 39.2444 105.771 41.0495C106.082 42.286 107.049 43.272 108.221 43.7441C109.952 44.4892 111.988 44.3511 113.588 45.4399C115.949 47.0008 117.728 49.2715 119.308 51.584C120.137 52.7852 121.164 54.0185 122.658 54.3525C124.607 54.8022 126.525 53.8386 128.147 52.8526C129.428 52.0915 130.074 50.6943 131.076 49.6473C132.335 48.3016 133.53 46.8563 134.326 45.1798C135.967 41.5826 135.54 37.2178 133.568 33.8359C132.447 31.9088 131.272 29.9529 129.615 28.4337C126.602 25.7455 122.427 24.4608 118.422 24.8012ZM62.5211 61.6882C60.3756 62.0928 58.4518 63.2394 56.7656 64.5884C54.4917 66.4512 52.6032 68.844 51.5497 71.6061C50.4641 74.6347 50.1622 77.9814 50.9106 81.1289C51.3217 82.8632 51.9448 84.6136 53.1524 85.9626C54.4114 87.4143 56.2935 88.3425 58.2302 88.3264C60.5555 88.3361 62.7555 87.3019 64.583 85.9337C67.8076 83.4895 70.3834 80.3099 72.6766 77.005C73.5952 75.5694 74.6165 73.9699 74.4206 72.1906C74.1958 69.8203 73.1776 67.5914 71.8769 65.6258C69.8792 62.6485 66.0733 60.8852 62.5211 61.6882ZM107.168 61.701C103.246 62.5168 100.593 66.0401 99.3855 69.6597C98.9616 71.0761 98.5119 72.6434 99.0579 74.092C99.7453 75.9259 100.959 77.4932 102.125 79.0445C104.534 82.2594 107.325 85.3556 110.909 87.2762C113.588 88.7247 117.22 88.7793 119.533 86.6049C122.228 83.9841 123.021 79.9952 122.78 76.3659C122.619 72.5375 120.895 68.8793 118.226 66.1621C115.483 63.1463 111.346 60.8274 107.168 61.701ZM32.4655 77.2234C29.5589 87.4175 29.5717 98.4145 32.4366 108.618C34.2319 113.982 36.2939 119.326 39.496 124.028C41.3235 126.655 43.2473 129.231 45.4699 131.544C51.3827 137.8 58.9592 142.422 67.146 145.046C67.4479 142.477 67.586 139.65 69.3011 137.559C71.4626 134.743 74.7386 133.172 77.8347 131.618C79.1001 131.011 80.2242 130.166 81.3676 129.36C82.6652 128.438 84.2871 128.155 85.8512 128.117C87.4988 128.081 89.2075 128.062 90.7813 128.64C92.0306 129.09 93.0102 130.021 94.1215 130.722C96.6427 132.299 99.4787 133.362 101.82 135.231C103.137 136.271 104.361 137.511 105.09 139.046C105.909 140.848 106.021 142.859 106.262 144.795C107.322 144.6 108.359 144.282 109.348 143.845C111.481 142.92 113.649 142.053 115.663 140.88C118.897 138.95 122.067 136.872 124.826 134.29C128.166 131.393 131.028 127.975 133.494 124.314C135.887 121.019 137.583 117.29 139.089 113.526C139.889 111.544 140.387 109.46 141.048 107.433C141.89 104.857 142.282 102.166 142.596 99.4841C143.396 92.961 142.959 86.2902 141.373 79.9116C140.576 77.4257 139.947 74.8724 138.916 72.4668C138.71 76.2149 138.428 79.9887 137.413 83.6212C136.664 86.2709 135.759 88.9624 134.044 91.1624C132.226 93.3946 130.25 95.5111 127.999 97.3129C124.704 99.7828 121.1 101.793 117.529 103.833C113.427 106.11 108.941 107.664 105.041 110.311C103.718 111.233 102.562 112.376 101.207 113.25C98.9712 114.73 96.3729 115.53 93.7746 116.086C90.9611 116.702 88.0673 116.442 85.2153 116.503C81.2584 116.59 77.2469 115.729 73.7526 113.853C71.5589 112.704 69.9081 110.783 67.7691 109.546C64.0627 107.33 59.9806 105.85 56.2228 103.727C52.6578 101.671 49.0413 99.6703 45.7525 97.1812C43.4368 95.2381 41.3299 93.0349 39.5153 90.6164C38.51 89.2418 37.842 87.6584 37.2927 86.0557C36.2007 82.8151 35.5134 79.4427 35.1762 76.0415C34.9964 74.2975 35.0798 72.5407 34.9642 70.7903C33.7887 72.7848 33.2973 75.0812 32.4655 77.2234ZM77.2245 91.2042C76.9804 92.5435 77.4589 94.0787 78.5895 94.888C80.2499 95.8484 82.2123 96.086 83.921 96.9339C84.8524 97.4767 85.6296 98.2411 86.4968 98.8802C87.3318 98.2154 88.0481 97.39 88.9827 96.8601C90.5886 96.1181 92.3936 95.8965 93.9705 95.0743C95.3034 94.3774 95.9361 92.7073 95.6599 91.2716C95.509 90.459 94.706 89.8938 93.8967 89.9869C92.0017 90.0608 90.11 90.2117 88.2183 90.3113C85.1735 90.5875 82.1384 90.0833 79.1033 89.9773C78.294 89.8906 77.4043 90.382 77.2245 91.2042ZM81.4704 106.341C81.4608 106.54 81.4447 106.939 81.4383 107.138C82.9189 107.873 84.3449 108.708 85.7902 109.511C86.3715 109.884 87.0235 109.489 87.5663 109.235C88.8253 108.557 90.1132 107.925 91.3401 107.179C91.2984 106.971 91.2181 106.547 91.1795 106.338C89.7118 106.303 88.2697 106.605 86.8115 106.662C85.0194 106.739 83.2593 106.293 81.4704 106.341Z" fill="white"/>
<path d="M64.4449 68.7732C65.8773 68.497 67.5314 68.8086 68.5238 69.9487C69.0184 70.4851 69.3075 71.3073 68.9445 71.9946C68.3568 73.2087 67.0753 73.9249 65.8227 74.2718C64.3325 74.6796 62.7619 73.9217 61.8241 72.7719C61.368 72.2098 61.368 71.3876 61.5993 70.7324C62.1774 69.6854 63.2983 69.0173 64.4449 68.7732Z" fill="white"/>
<path d="M106.84 68.7828C108.43 68.452 110.27 68.8953 111.32 70.1896C111.905 70.893 111.992 71.9625 111.465 72.7237C110.607 73.9538 108.979 74.6828 107.502 74.2685C106.516 73.9987 105.571 73.5041 104.862 72.7686C104.193 72.0781 104.043 70.893 104.646 70.1189C105.202 69.4477 105.995 68.982 106.84 68.7828Z" fill="white"/>
<path d="M52.2562 24.7915C55.4391 24.541 58.6893 25.3215 61.4611 26.892C63.2115 27.8684 64.6471 29.3843 65.5272 31.1861C66.2016 32.5672 67.2647 33.8005 67.4767 35.3678C67.7112 37.0283 67.7561 38.7273 67.5474 40.3942C67.4092 41.5858 66.783 42.7484 65.7391 43.3811C64.4609 44.1937 62.9032 44.2676 61.4707 44.6305C60.231 44.9164 59.1807 45.6775 58.214 46.4644C56.0942 48.2405 54.6393 50.6301 52.9596 52.7884C52.0314 53.9703 50.4833 54.6351 48.9899 54.4456C47.5221 54.2497 46.1539 53.5785 44.9463 52.7466C43.8575 51.9983 43.2665 50.7778 42.3672 49.8496C41.0568 48.4557 39.6983 47.0393 38.9274 45.2632C37.5528 42.1832 37.6588 38.5699 38.8471 35.4513C39.4927 33.6816 40.6682 32.185 41.7377 30.6594C43.016 28.8512 44.6797 27.2742 46.6934 26.3171C48.4406 25.4885 50.3356 24.9874 52.2562 24.7915Z" fill="black"/>
<path d="M118.421 24.8012C122.426 24.4608 126.602 25.7455 129.614 28.4337C131.272 29.9529 132.447 31.9088 133.568 33.8359C135.54 37.2178 135.967 41.5826 134.326 45.1798C133.53 46.8563 132.335 48.3016 131.076 49.6473C130.074 50.6944 129.428 52.0915 128.147 52.8527C126.525 53.8387 124.607 54.8022 122.658 54.3525C121.164 54.0185 120.137 52.7852 119.308 51.584C117.728 49.2716 115.948 47.0008 113.588 45.4399C111.988 44.3511 109.952 44.4893 108.221 43.7441C107.049 43.272 106.082 42.286 105.77 41.0495C105.314 39.2445 105.423 37.3399 105.671 35.5092C105.841 34.0125 106.763 32.7856 107.495 31.5202C108.459 29.7024 109.756 28.0001 111.574 26.9627C113.674 25.7904 116.022 25.0325 118.421 24.8012Z" fill="black"/>
<path d="M62.5209 61.688C66.0731 60.8851 69.879 62.6483 71.8767 65.6256C73.1775 67.5912 74.1956 69.8202 74.4205 72.1905C74.6164 73.9698 73.595 75.5692 72.6765 77.0049C70.3833 80.3098 67.8075 83.4894 64.5829 85.9335C62.7554 87.3017 60.5553 88.3359 58.23 88.3263C56.2933 88.3424 54.4112 87.4142 53.1522 85.9624C51.9446 84.6135 51.3215 82.8631 50.9104 81.1288C50.1621 77.9812 50.464 74.6346 51.5496 71.6059C52.603 68.8438 54.4915 66.4511 56.7654 64.5882C58.4516 63.2393 60.3755 62.0927 62.5209 61.688ZM64.4448 68.7732C63.2982 69.0172 62.1772 69.6853 61.5991 70.7323C61.3679 71.3875 61.3679 72.2097 61.824 72.7718C62.7618 73.9216 64.3323 74.6796 65.8226 74.2717C67.0752 73.9248 68.3567 73.2086 68.9444 71.9945C69.3073 71.3072 69.0183 70.485 68.5237 69.9487C67.5313 68.8085 65.8772 68.4969 64.4448 68.7732Z" fill="black"/>
<path d="M107.168 61.7011C111.346 60.8275 115.483 63.1463 118.226 66.1622C120.895 68.8793 122.619 72.5375 122.78 76.3659C123.021 79.9952 122.227 83.9842 119.533 86.605C117.22 88.7793 113.588 88.7247 110.909 87.2762C107.325 85.3556 104.534 82.2595 102.125 79.0445C100.959 77.4932 99.7452 75.9259 99.0579 74.092C98.5119 72.6435 98.9615 71.0762 99.3855 69.6598C100.593 66.0401 103.246 62.5168 107.168 61.7011ZM106.84 68.783C105.995 68.9821 105.202 69.4478 104.646 70.1191C104.043 70.8931 104.193 72.0782 104.862 72.7687C105.571 73.5042 106.516 73.9989 107.502 74.2686C108.979 74.683 110.607 73.9539 111.465 72.7238C111.992 71.9626 111.905 70.8931 111.32 70.1897C110.27 68.8954 108.43 68.4522 106.84 68.783Z" fill="black"/>
<path d="M32.4653 77.2233C33.2971 75.0811 33.7885 72.7847 34.964 70.7902C35.0796 72.5406 34.9961 74.2974 35.176 76.0414C35.5132 79.4427 36.2005 82.815 37.2925 86.0556C37.8417 87.6583 38.5098 89.2417 39.5151 90.6163C41.3297 93.0348 43.4366 95.238 45.7523 97.1812C49.0411 99.6703 52.6576 101.671 56.2226 103.727C59.9803 105.85 64.0625 107.33 67.7688 109.546C69.9079 110.783 71.5587 112.704 73.7523 113.853C77.2467 115.729 81.2582 116.59 85.2151 116.503C88.0671 116.442 90.9609 116.702 93.7744 116.086C96.3727 115.53 98.971 114.73 101.206 113.25C102.562 112.376 103.718 111.233 105.041 110.311C108.94 107.664 113.427 106.11 117.529 103.833C121.1 101.793 124.704 99.7827 127.999 97.3128C130.25 95.511 132.226 93.3945 134.043 91.1623C135.758 88.9623 136.664 86.2708 137.412 83.6211C138.427 79.9887 138.71 76.2148 138.916 72.4667C139.947 74.8723 140.576 77.4257 141.373 79.9116C142.959 86.2901 143.396 92.9609 142.596 99.484C142.281 102.166 141.89 104.857 141.048 107.433C140.387 109.46 139.889 111.544 139.089 113.526C137.583 117.29 135.887 121.019 133.494 124.314C131.027 127.975 128.166 131.393 124.826 134.29C122.067 136.872 118.897 138.95 115.663 140.88C113.649 142.053 111.481 142.92 109.348 143.845C108.359 144.281 107.322 144.599 106.262 144.795C106.021 142.859 105.908 140.848 105.089 139.046C104.36 137.511 103.137 136.271 101.82 135.231C99.4785 133.362 96.6425 132.298 94.1213 130.721C93.01 130.021 92.0304 129.09 90.7811 128.64C89.2073 128.062 87.4986 128.081 85.851 128.117C84.2869 128.155 82.665 128.438 81.3674 129.36C80.224 130.166 79.0999 131.011 77.8345 131.618C74.7384 133.172 71.4624 134.743 69.3009 137.559C67.5858 139.65 67.4477 142.476 67.1458 145.046C58.959 142.422 51.3825 137.8 45.4697 131.544C43.2471 129.231 41.3233 126.655 39.4958 124.028C36.2937 119.326 34.2317 113.982 32.4364 108.618C29.5715 98.4145 29.5586 87.4174 32.4653 77.2233Z" fill="black"/>
<path d="M77.2243 91.2042C77.4041 90.382 78.2938 89.8906 79.1032 89.9773C82.1383 90.0833 85.1734 90.5876 88.2181 90.3114C90.1098 90.2118 92.0016 90.0608 93.8965 89.987C94.7059 89.8938 95.5088 90.4591 95.6598 91.2717C95.936 92.7073 95.3032 94.3774 93.9704 95.0744C92.3934 95.8966 90.5884 96.1182 88.9825 96.8601C88.0479 97.3901 87.3317 98.2155 86.4966 98.8803C85.6294 98.2412 84.8522 97.4768 83.9208 96.934C82.2121 96.0861 80.2498 95.8484 78.5893 94.8881C77.4587 94.0787 76.9802 92.5435 77.2243 91.2042Z" fill="black"/>
<path d="M81.4704 106.341C83.2593 106.293 85.0193 106.739 86.8115 106.662C88.2696 106.605 89.7117 106.303 91.1795 106.338C91.218 106.547 91.2983 106.971 91.3401 107.179C90.1132 107.925 88.8253 108.557 87.5663 109.235C87.0235 109.489 86.3715 109.884 85.7902 109.511C84.3449 108.708 82.9188 107.873 81.4382 107.138C81.4447 106.939 81.4607 106.54 81.4704 106.341Z" fill="black"/>
</svg>
