<svg width="115" height="123" viewBox="0 0 115 123" fill="none" xmlns="http://www.w3.org/2000/svg">
<path d="M18.4804 0.875072C19.1902 0.682367 19.8519 0.354768 20.5295 0.0624989C22.6782 -0.0499124 24.8333 0.0624977 26.9884 0.0111097C28.7645 -0.11736 30.3189 0.900766 31.9666 1.39216C32.9654 2.14693 34.1795 2.59014 35.0916 3.46695C35.8078 4.16069 36.5016 4.88334 37.2049 5.59314C37.3302 6.48921 37.8312 7.26646 38.2616 8.0437C39.5142 7.57799 40.6961 6.95171 41.9519 6.49564C42.2506 6.46031 42.5525 6.42498 42.8576 6.38965C43.6573 6.03314 44.4956 5.71839 45.3949 5.78905C45.5073 5.70876 45.7353 5.54817 45.8478 5.46788C46.1336 5.4743 46.7085 5.48714 46.9944 5.49357C47.1068 5.40685 47.3348 5.23342 47.4504 5.1467C47.9354 5.15313 48.4268 5.16276 48.9214 5.17239C49.037 5.08567 49.2651 4.91224 49.3775 4.82553C49.9717 4.83516 50.569 4.84158 51.1696 4.85122C51.282 4.7645 51.5133 4.59428 51.6257 4.50756C53.0774 4.52683 54.5323 4.50435 55.9873 4.52683C56.1029 4.44333 56.3309 4.26989 56.4433 4.18639C57.3587 4.19923 58.2772 4.19923 59.199 4.18639C59.3146 4.2731 59.5427 4.44333 59.6551 4.52683C61.0008 4.50756 62.3465 4.52683 63.6955 4.50756C63.8111 4.59428 64.0391 4.7645 64.1515 4.84801C64.8517 4.83837 65.5551 4.83516 66.2617 4.82553C66.3773 4.91224 66.6053 5.08567 66.7209 5.17239C67.2059 5.16276 67.6941 5.15634 68.1887 5.14991C68.3011 5.23021 68.5292 5.38758 68.6416 5.46788C69.9359 5.44218 71.1339 6.02672 72.4025 6.20337C73.9795 6.75579 75.5822 7.27288 77.0628 8.05976C77.3775 7.49449 77.6923 6.91959 77.8143 6.27724C79.4876 3.71105 81.98 1.6202 84.954 0.765873C85.9657 0.489663 86.9261 -0.0691841 88.0084 0.0111097C90.0575 0.0400154 92.1098 -0.0113724 94.1589 0.0464391C95.5014 0.431849 96.8215 0.884707 98.1254 1.39216C99.4904 2.27861 100.929 3.08797 102.076 4.26668C103.762 6.29651 105.432 8.42269 106.322 10.9375C106.688 11.7854 107.044 12.6622 106.974 13.6097C107.054 13.7221 107.211 13.9501 107.292 14.0625C107.25 15.5078 107.327 16.9499 107.263 18.392C106.983 19.4711 106.765 20.5695 106.434 21.6326C105.419 23.746 103.855 25.5574 102.134 27.1279C102.564 27.5583 102.847 28.0947 103.149 28.6182C104.225 29.7359 104.806 31.2133 105.612 32.5205C106.11 33.2367 106.511 34.0236 106.749 34.8682C107.038 35.9859 107.664 36.9687 108.043 38.0511C108.564 39.1977 108.885 40.4149 109.322 41.5937C110.086 43.2284 110.266 45.0559 110.719 46.7871C111.371 48.7109 111.984 50.6508 112.662 52.565C112.925 54.264 113.664 55.8795 113.719 57.6107C113.799 57.7231 113.959 57.9511 114.04 58.0667C114.033 58.3526 114.02 58.9211 114.014 59.2069C114.101 59.3225 114.274 59.5506 114.361 59.6662C114.345 60.2604 114.342 60.8577 114.335 61.4583C114.422 61.5708 114.595 61.802 114.682 61.9144C114.666 62.6178 114.663 63.3212 114.66 64.0277C114.743 64.1402 114.916 64.3714 115 64.4838C114.984 67.5446 114.984 70.6054 115 73.663C114.913 73.7786 114.743 74.0067 114.656 74.1223C114.663 74.8224 114.666 75.5258 114.682 76.2324C114.595 76.3448 114.422 76.5761 114.335 76.6885C114.342 77.2826 114.345 77.88 114.358 78.4774C114.277 78.593 114.11 78.8179 114.03 78.9335C114.155 80.1732 113.619 81.323 113.42 82.5242C113.295 83.2244 113.108 83.9149 112.983 84.6151C112.389 86.2466 112.058 87.9585 111.419 89.574C110.863 90.8426 110.526 92.243 109.614 93.3189C109.18 94.8445 108.313 96.2031 107.507 97.552C106.768 99.129 105.596 100.446 104.912 102.052C103.887 103.07 103.097 104.284 102.089 105.318C101.392 106.526 100.152 107.268 99.4358 108.456C98.8063 109.426 97.8075 110.03 96.9307 110.739C95.1385 112.74 92.6815 113.961 90.7513 115.801C87.4849 117.789 84.0291 119.504 80.464 120.892C79.144 121.203 77.9749 122.164 76.581 122.061C76.475 121.948 76.2598 121.724 76.1506 121.611C76.08 120.635 76.1378 119.655 76.1314 118.679C75.9772 118.531 75.6689 118.232 75.5147 118.082C75.3188 116.302 74.6379 114.545 73.4881 113.158C71.2206 111.07 68.3332 109.879 65.6482 108.446C64.8645 107.685 63.8047 107.332 63.0146 106.593C61.7941 105.732 60.2878 105.215 58.7847 105.36C57.1981 105.472 55.5344 105.084 54.0217 105.703C52.6502 106.172 51.6996 107.341 50.4213 107.981C49.3036 109.121 47.6913 109.538 46.2781 110.19C45.5459 110.65 44.7975 111.077 44.062 111.53C42.9989 112.146 42.2281 113.123 41.3513 113.961C40.452 114.773 40.3749 116.068 39.9189 117.124C39.466 118.605 39.4532 120.137 39.527 121.672C39.1545 121.894 38.7819 122.112 38.4093 122.334C37.3174 121.682 36.0487 121.454 34.8764 120.995C32.9847 120.201 31.0352 119.536 29.2366 118.534C27.7656 117.915 26.4873 116.945 25.042 116.283C24.602 116.113 24.4736 115.599 24.1074 115.348C22.2703 114.093 20.5295 112.702 18.7374 111.385C17.3595 109.975 15.805 108.706 14.7002 107.062C13.817 106.442 13.226 105.53 12.4809 104.772C11.5527 103.452 10.4543 102.248 9.70914 100.809C8.10647 98.4802 6.51987 96.1099 5.57883 93.4217C4.65706 91.6295 3.95368 89.741 3.28564 87.8429C3.26315 87.6759 3.21818 87.3451 3.1957 87.1813C3.04796 87.0367 2.7557 86.7477 2.60796 86.6031C2.60796 85.797 2.30605 85.0487 2.0202 84.3099C1.84356 83.0413 1.2526 81.8465 1.28151 80.549C1.20442 80.4334 1.04382 80.1989 0.963525 80.0833C0.966737 79.5919 0.973163 79.1037 0.98601 78.6155C0.899293 78.4999 0.725872 78.2719 0.639155 78.1595C0.645579 77.5589 0.651988 76.9615 0.664835 76.3673C0.578118 76.2549 0.407892 76.0236 0.321175 75.9112C0.334022 74.7775 0.324406 73.6469 0.340464 72.5132C0.256959 72.4008 0.0835055 72.1695 0 72.0571C0.0160588 69.9598 0.0160588 67.8658 0 65.7685C0.0835055 65.6561 0.256959 65.4281 0.340464 65.3124C0.324406 64.2847 0.334022 63.2601 0.321175 62.2356C0.404681 62.12 0.578134 61.8919 0.66164 61.7795C0.652004 61.0729 0.64879 60.3696 0.639155 59.6662C0.725872 59.5506 0.899293 59.3225 0.98601 59.2069C0.979587 58.9211 0.966754 58.3494 0.96033 58.0635C1.04705 57.9479 1.22047 57.7167 1.30719 57.6042C1.30076 57.3184 1.28793 56.7467 1.28151 56.4609C1.3618 56.3452 1.52239 56.1172 1.60268 56.0048C1.55129 55.1505 1.89172 54.3572 2.01056 53.5253C2.17757 53.0821 2.33174 52.6325 2.52124 52.1957C2.54051 52.0319 2.58226 51.6978 2.60153 51.5308C2.74927 51.3863 3.04796 51.0972 3.1957 50.9527C3.10898 50.002 3.73529 49.2344 3.97295 48.3576C4.35836 47.105 4.93969 45.9231 5.39576 44.6962C5.47284 43.8387 5.68802 43.0036 6.05416 42.2264C6.08949 41.9245 6.12803 41.6258 6.16978 41.3239C6.83783 39.7533 7.14294 38.0447 7.92982 36.5223C8.3634 35.6551 8.57539 34.682 9.13103 33.8726C10.3097 32.0901 11.2443 30.1438 12.513 28.4255C12.5194 28.2585 12.5355 27.9244 12.5451 27.7574C12.7667 27.5583 12.9915 27.3624 13.2196 27.1665C12.4263 26.3892 11.5912 25.6505 10.8654 24.8058C10.1267 23.7909 9.52286 22.6764 8.72634 21.7001C8.69744 21.5459 8.63963 21.2312 8.61072 21.0738C8.084 19.6863 7.61507 18.225 7.71142 16.7219C7.71463 15.8515 7.70822 14.9779 7.74355 14.1075C8.00049 13.5486 8.07436 12.932 8.26385 12.3474C8.47904 11.5895 8.90298 10.9022 9.08284 10.1313C10.1331 8.75671 10.9103 7.20222 11.8257 5.74087C12.6511 4.85122 13.5086 3.98405 14.4079 3.16826C15.7055 2.31394 16.9452 1.28296 18.4804 0.875072ZM23.2563 0.791563C21.3357 0.98748 19.4407 1.48851 17.6935 2.31714C15.6798 3.27425 14.0161 4.85122 12.7378 6.65943C11.6683 8.18502 10.4928 9.68169 9.84724 11.4514C8.65889 14.57 8.55291 18.1832 9.92754 21.2633C10.6984 23.0394 12.0569 24.4558 13.3673 25.8497C14.2666 26.7778 14.8576 27.9983 15.9464 28.7467C17.154 29.5785 18.5222 30.2498 19.99 30.4457C21.4834 30.6352 23.0315 29.9703 23.9597 28.7884C25.6394 26.6301 27.0943 24.2406 29.2141 22.4645C30.1808 21.6776 31.2311 20.9164 32.4708 20.6306C33.9033 20.2676 35.461 20.1938 36.7392 19.3812C37.7831 18.7485 38.4093 17.5858 38.5474 16.3943C38.7562 14.7274 38.7113 13.0283 38.4768 11.3679C38.2648 9.80053 37.2017 8.56722 36.5273 7.18616C35.6472 5.38437 34.2116 3.86842 32.4612 2.89205C29.6894 1.3215 26.4391 0.541046 23.2563 0.791563ZM89.4216 0.801198C87.0224 1.03244 84.6746 1.79042 82.5741 2.96271C80.7563 4.00011 79.4587 5.70234 78.4952 7.52019C77.7629 8.78562 76.8412 10.0125 76.6709 11.5092C76.4236 13.3399 76.3144 15.2444 76.7705 17.0495C77.082 18.286 78.0488 19.272 79.2211 19.7441C80.9522 20.4892 82.9884 20.3511 84.5879 21.4399C86.9485 23.0008 88.7279 25.2715 90.308 27.584C91.1367 28.7852 92.1644 30.0185 93.6579 30.3525C95.6074 30.8022 97.5249 29.8386 99.1468 28.8526C100.428 28.0915 101.074 26.6943 102.076 25.6473C103.335 24.3016 104.53 22.8563 105.326 21.1798C106.967 17.5826 106.54 13.2178 104.568 9.83586C103.447 7.90881 102.272 5.95285 100.615 4.43369C97.6019 1.74546 93.4267 0.460752 89.4216 0.801198ZM33.5211 37.6882C31.3756 38.0928 29.4518 39.2394 27.7656 40.5884C25.4917 42.4512 23.6032 44.844 22.5497 47.6061C21.4641 50.6347 21.1622 53.9814 21.9106 57.1289C22.3217 58.8632 22.9448 60.6136 24.1524 61.9626C25.4114 63.4143 27.2935 64.3425 29.2302 64.3264C31.5555 64.3361 33.7555 63.3019 35.583 61.9337C38.8076 59.4895 41.3834 56.3099 43.6766 53.005C44.5952 51.5694 45.6165 49.9699 45.4206 48.1906C45.1958 45.8203 44.1776 43.5914 42.8769 41.6258C40.8792 38.6485 37.0733 36.8852 33.5211 37.6882ZM78.1676 37.701C74.2461 38.5168 71.5932 42.0401 70.3855 45.6597C69.9616 47.0761 69.5119 48.6434 70.0579 50.092C70.7453 51.9259 71.9593 53.4932 73.1252 55.0445C75.534 58.2594 78.325 61.3556 81.9093 63.2762C84.5879 64.7247 88.2204 64.7793 90.5329 62.6049C93.2275 59.9841 94.0208 55.9952 93.7799 52.3659C93.6193 48.5375 91.8947 44.8793 89.2257 42.1621C86.4829 39.1463 82.3461 36.8274 78.1676 37.701ZM3.46549 53.2234C0.558857 63.4175 0.571696 74.4145 3.43658 84.6183C5.23195 89.9819 7.29391 95.3263 10.496 100.028C12.3235 102.655 14.2473 105.231 16.4699 107.544C22.3827 113.8 29.9592 118.422 38.146 121.046C38.4479 118.477 38.586 115.65 40.3011 113.559C42.4626 110.743 45.7386 109.172 48.8347 107.618C50.1001 107.011 51.2242 106.166 52.3676 105.36C53.6652 104.438 55.2871 104.155 56.8512 104.117C58.4988 104.081 60.2075 104.062 61.7813 104.64C63.0306 105.09 64.0102 106.021 65.1215 106.722C67.6427 108.299 70.4787 109.362 72.8201 111.231C74.1369 112.271 75.3606 113.511 76.0896 115.046C76.9086 116.848 77.021 118.859 77.2619 120.795C78.3218 120.6 79.3592 120.282 80.3484 119.845C82.481 118.92 84.6489 118.053 86.6627 116.88C89.897 114.95 93.0669 112.872 95.8258 110.29C99.166 107.393 102.028 103.975 104.494 100.314C106.887 97.0188 108.583 93.29 110.089 89.5258C110.889 87.5442 111.387 85.4598 112.048 83.4331C112.89 80.8573 113.282 78.1659 113.596 75.4841C114.396 68.961 113.959 62.2902 112.373 55.9116C111.576 53.4257 110.947 50.8724 109.916 48.4668C109.71 52.2149 109.428 55.9887 108.413 59.6212C107.664 62.2709 106.759 64.9624 105.044 67.1624C103.226 69.3946 101.25 71.5111 98.999 73.3129C95.7038 75.7828 92.1002 77.7933 88.5287 79.8328C84.4273 82.1099 79.9405 83.6644 76.0414 86.3109C74.7182 87.2326 73.562 88.376 72.2066 89.2496C69.9712 90.7302 67.3729 91.53 64.7746 92.0856C61.9611 92.7023 59.0673 92.4421 56.2153 92.5031C52.2584 92.5898 48.2469 91.7291 44.7526 89.8534C42.5589 88.7036 40.9081 86.783 38.7691 85.5465C35.0627 83.3304 30.9806 81.8498 27.2228 79.7268C23.6578 77.6713 20.0413 75.6703 16.7525 73.1812C14.4368 71.2381 12.3299 69.0349 10.5153 66.6164C9.51001 65.2418 8.84195 63.6584 8.29274 62.0557C7.20075 58.8151 6.51345 55.4427 6.17621 52.0415C5.99635 50.2975 6.07985 48.5407 5.96423 46.7903C4.78872 48.7848 4.29734 51.0812 3.46549 53.2234ZM48.2245 67.2042C47.9804 68.5435 48.4589 70.0787 49.5895 70.888C51.2499 71.8484 53.2123 72.086 54.921 72.9339C55.8524 73.4767 56.6296 74.2411 57.4968 74.8802C58.3318 74.2154 59.0481 73.39 59.9827 72.8601C61.5886 72.1181 63.3936 71.8965 64.9705 71.0743C66.3034 70.3774 66.9361 68.7073 66.6599 67.2716C66.509 66.459 65.706 65.8938 64.8967 65.9869C63.0017 66.0608 61.11 66.2117 59.2183 66.3113C56.1735 66.5875 53.1384 66.0833 50.1033 65.9773C49.294 65.8906 48.4043 66.382 48.2245 67.2042ZM52.4704 82.3411C52.4608 82.5403 52.4447 82.9385 52.4383 83.1377C53.9189 83.8732 55.3449 84.7082 56.7902 85.5111C57.3715 85.8837 58.0235 85.4887 58.5663 85.2349C59.8253 84.5573 61.1132 83.9245 62.3401 83.1794C62.2984 82.9707 62.2181 82.5467 62.1795 82.3379C60.7118 82.3026 59.2697 82.6045 57.8115 82.6623C56.0194 82.7394 54.2593 82.293 52.4704 82.3411Z" fill="white"/>
<path d="M35.4449 44.7732C36.8773 44.497 38.5314 44.8086 39.5238 45.9487C40.0184 46.4851 40.3075 47.3073 39.9445 47.9946C39.3568 49.2087 38.0753 49.9249 36.8227 50.2718C35.3325 50.6796 33.7619 49.9217 32.8241 48.7719C32.368 48.2098 32.368 47.3876 32.5993 46.7324C33.1774 45.6854 34.2983 45.0173 35.4449 44.7732Z" fill="white"/>
<path d="M77.84 44.7828C79.4298 44.452 81.2701 44.8953 82.3204 46.1896C82.9049 46.893 82.9916 47.9625 82.4649 48.7237C81.6074 49.9538 79.979 50.6828 78.5016 50.2685C77.5156 49.9987 76.5713 49.5041 75.8615 48.7686C75.1935 48.0781 75.0426 46.893 75.6464 46.1189C76.202 45.4477 76.9953 44.982 77.84 44.7828Z" fill="white"/>
<path d="M23.2562 0.791519C26.4391 0.541002 29.6893 1.32146 32.4611 2.89201C34.2115 3.86838 35.6471 5.38432 36.5272 7.18612C37.2016 8.56717 38.2647 9.80048 38.4767 11.3678C38.7112 13.0283 38.7561 14.7273 38.5474 16.3942C38.4092 17.5858 37.783 18.7484 36.7391 19.3811C35.4609 20.1937 33.9032 20.2676 32.4707 20.6305C31.231 20.9164 30.1807 21.6775 29.214 22.4644C27.0942 24.2405 25.6393 26.6301 23.9596 28.7884C23.0314 29.9703 21.4833 30.6351 19.9899 30.4456C18.5221 30.2497 17.1539 29.5785 15.9463 28.7466C14.8575 27.9983 14.2665 26.7778 13.3672 25.8496C12.0568 24.4557 10.6983 23.0393 9.92744 21.2632C8.55281 18.1832 8.65879 14.5699 9.84714 11.4513C10.4927 9.68165 11.6682 8.18497 12.7377 6.65939C14.016 4.85117 15.6797 3.2742 17.6934 2.3171C19.4406 1.48847 21.3356 0.987435 23.2562 0.791519Z" fill="black"/>
<path d="M89.4214 0.801213C93.4265 0.460768 97.6018 1.74547 100.614 4.43371C102.272 5.95287 103.447 7.90882 104.568 9.83587C106.54 13.2178 106.967 17.5826 105.326 21.1798C104.53 22.8563 103.335 24.3016 102.076 25.6473C101.074 26.6944 100.428 28.0915 99.1466 28.8527C97.5247 29.8387 95.6073 30.8022 93.6577 30.3525C92.1643 30.0185 91.1365 28.7852 90.3079 27.584C88.7277 25.2716 86.9484 23.0008 84.5877 21.4399C82.9883 20.3511 80.952 20.4893 79.2209 19.7441C78.0486 19.272 77.0819 18.286 76.7703 17.0495C76.3143 15.2445 76.4235 13.3399 76.6708 11.5092C76.841 10.0125 77.7628 8.78563 78.4951 7.5202C79.4586 5.70235 80.7561 4.00012 82.574 2.96273C84.6745 1.79044 87.0223 1.03246 89.4214 0.801213Z" fill="black"/>
<path d="M33.5209 37.688C37.0731 36.8851 40.879 38.6483 42.8767 41.6256C44.1775 43.5912 45.1956 45.8202 45.4205 48.1905C45.6164 49.9698 44.595 51.5692 43.6765 53.0049C41.3833 56.3098 38.8075 59.4894 35.5829 61.9335C33.7554 63.3017 31.5553 64.3359 29.23 64.3263C27.2933 64.3424 25.4112 63.4142 24.1522 61.9624C22.9446 60.6135 22.3215 58.8631 21.9104 57.1288C21.1621 53.9812 21.464 50.6346 22.5496 47.6059C23.603 44.8438 25.4915 42.4511 27.7654 40.5882C29.4516 39.2393 31.3755 38.0927 33.5209 37.688ZM35.4448 44.7732C34.2982 45.0172 33.1772 45.6853 32.5991 46.7323C32.3679 47.3875 32.3679 48.2097 32.824 48.7718C33.7618 49.9216 35.3323 50.6796 36.8226 50.2717C38.0752 49.9248 39.3567 49.2086 39.9444 47.9945C40.3073 47.3072 40.0183 46.485 39.5237 45.9487C38.5313 44.8085 36.8772 44.4969 35.4448 44.7732Z" fill="black"/>
<path d="M78.1675 37.7011C82.346 36.8275 86.4828 39.1463 89.2256 42.1622C91.8946 44.8793 93.6193 48.5375 93.7799 52.3659C94.0207 55.9952 93.2274 59.9842 90.5328 62.605C88.2203 64.7793 84.5878 64.7247 81.9092 63.2762C78.3249 61.3556 75.5339 58.2595 73.1251 55.0445C71.9592 53.4932 70.7452 51.9259 70.0579 50.092C69.5119 48.6435 69.9615 47.0762 70.3855 45.6598C71.5931 42.0401 74.246 38.5168 78.1675 37.7011ZM77.84 44.783C76.9953 44.9821 76.202 45.4478 75.6463 46.1191C75.0425 46.8931 75.1935 48.0782 75.8615 48.7687C76.5713 49.5042 77.5156 49.9989 78.5016 50.2686C79.979 50.683 81.6073 49.9539 82.4649 48.7238C82.9916 47.9626 82.9049 46.8931 82.3204 46.1897C81.2701 44.8954 79.4298 44.4522 77.84 44.783Z" fill="black"/>
<path d="M3.46528 53.2233C4.29712 51.0811 4.78851 48.7847 5.96401 46.7902C6.07964 48.5406 5.99614 50.2974 6.176 52.0414C6.51323 55.4427 7.20054 58.815 8.29253 62.0556C8.84174 63.6583 9.5098 65.2417 10.5151 66.6163C12.3297 69.0348 14.4366 71.238 16.7523 73.1812C20.0411 75.6703 23.6576 77.6712 27.2226 79.7267C30.9803 81.8497 35.0625 83.3303 38.7688 85.5464C40.9079 86.7829 42.5587 88.7036 44.7523 89.8534C48.2467 91.729 52.2582 92.5898 56.2151 92.5031C59.0671 92.442 61.9609 92.7022 64.7744 92.0855C67.3727 91.5299 69.971 90.7302 72.2064 89.2496C73.5617 88.376 74.718 87.2326 76.0412 86.3108C79.9403 83.6643 84.4271 82.1098 88.5285 79.8327C92.1 77.7932 95.7036 75.7827 98.9988 73.3128C101.25 71.511 103.226 69.3945 105.043 67.1623C106.758 64.9623 107.664 62.2708 108.412 59.6211C109.427 55.9887 109.71 52.2148 109.916 48.4667C110.947 50.8723 111.576 53.4257 112.373 55.9116C113.959 62.2901 114.396 68.9609 113.596 75.484C113.281 78.1658 112.89 80.8572 112.048 83.4331C111.387 85.4597 110.889 87.5441 110.089 89.5258C108.583 93.2899 106.887 97.0188 104.494 100.314C102.027 103.975 99.1658 107.393 95.8256 110.29C93.0667 112.872 89.8967 114.95 86.6625 116.88C84.6487 118.053 82.4808 118.92 80.3482 119.845C79.359 120.281 78.3216 120.599 77.2617 120.795C77.0208 118.859 76.9084 116.848 76.0894 115.046C75.3603 113.511 74.1367 112.271 72.8198 111.231C70.4785 109.362 67.6425 108.298 65.1213 106.721C64.01 106.021 63.0304 105.09 61.7811 104.64C60.2073 104.062 58.4986 104.081 56.851 104.117C55.2869 104.155 53.665 104.438 52.3674 105.36C51.224 106.166 50.0999 107.011 48.8345 107.618C45.7384 109.172 42.4624 110.743 40.3009 113.559C38.5858 115.65 38.4477 118.476 38.1458 121.046C29.959 118.422 22.3825 113.8 16.4697 107.544C14.2471 105.231 12.3233 102.655 10.4958 100.028C7.29369 95.3262 5.23173 89.9818 3.43637 84.6182C0.571483 74.4145 0.558644 63.4174 3.46528 53.2233Z" fill="black"/>
<path d="M48.2243 67.2042C48.4041 66.382 49.2938 65.8906 50.1032 65.9773C53.1383 66.0833 56.1734 66.5876 59.2181 66.3114C61.1098 66.2118 63.0016 66.0608 64.8965 65.987C65.7059 65.8938 66.5088 66.4591 66.6598 67.2717C66.936 68.7073 66.3032 70.3774 64.9704 71.0744C63.3934 71.8966 61.5884 72.1182 59.9825 72.8601C59.0479 73.3901 58.3317 74.2155 57.4966 74.8803C56.6294 74.2412 55.8522 73.4768 54.9208 72.934C53.2121 72.0861 51.2498 71.8484 49.5893 70.8881C48.4587 70.0787 47.9802 68.5435 48.2243 67.2042Z" fill="black"/>
<path d="M52.4704 82.3412C54.2593 82.293 56.0193 82.7394 57.8115 82.6623C59.2696 82.6045 60.7117 82.3026 62.1795 82.3379C62.218 82.5467 62.2983 82.9707 62.3401 83.1794C61.1132 83.9246 59.8253 84.5573 58.5663 85.235C58.0235 85.4887 57.3715 85.8837 56.7902 85.5112C55.3449 84.7082 53.9188 83.8732 52.4382 83.1377C52.4447 82.9386 52.4607 82.5403 52.4704 82.3412Z" fill="black"/>
</svg>
